<?xml version="1.0"?><svg version="1.1" id="Layer_1" xmlns="http://www.w3.org/2000/svg" x="0" y="0" viewBox="0 0 100 100" xml:space="preserve"><path d="M80.783 46.515l-23.173.653c-2.506.071-4.57-2.262-4.57-5.164v-1.307c0-2.902 2.064-5.234 4.57-5.164l23.173.653c2.421.068 4.352 2.36 4.352 5.164v0c0 2.805-1.932 5.097-4.352 5.165z" stroke-width="3.5" stroke-linecap="round" stroke-linejoin="round" fill="#e0e0e0" stroke="#333"/><path d="M30 90h0a4.324 4.324 0 0 1-4.324-4.324v-30.27h8.649v30.27A4.326 4.326 0 0 1 30 90z" fill="#666" stroke="#333" stroke-width="3.5" stroke-linecap="round" stroke-linejoin="round"/><path d="M42.973 58.649H24.324a9.46 9.46 0 0 1-9.459-9.459V33.514a9.46 9.46 0 0 1 9.459-9.459h18.649v34.594z" fill="#666" stroke="#333" stroke-width="3.5" stroke-linecap="round" stroke-linejoin="round"/><path d="M65.676 13.243h0c0 5.971-8.083 10.811-14.054 10.811h-8.649v34.595h8.649c5.971 0 14.054 4.84 14.054 10.811v0h8.649V13.243h-8.649z" stroke-width="3.5" stroke-linecap="round" stroke-linejoin="round" fill="#e0e0e0" stroke="#333"/><path d="M70.073 72.703h-.145a4.252 4.252 0 0 1-4.252-4.252V14.252A4.252 4.252 0 0 1 69.928 10h.145a4.252 4.252 0 0 1 4.252 4.252v54.199a4.253 4.253 0 0 1-4.252 4.252z" fill="#f0af6b" stroke="#333" stroke-linejoin="round" stroke-width="3.5" stroke-linecap="round"/><metadata xmlns:d="https://loading.io/stock/">
<d:name>advocate</d:name>
<d:tags>advocate,marketing,propose,promote,lecture,speak,talk,missionary</d:tags>
<d:license>by</d:license>
<d:slug>prlhrv</d:slug>
</metadata></svg>